<?xml version="1.0" encoding="UTF-8"?><svg xmlns="http://www.w3.org/2000/svg" xmlns:xlink="http://www.w3.org/1999/xlink" viewBox="0 0 50 50" version="1.1" fill="#000000"><g id="surface1" fill="#000000"><path style=" " d="M 24 1 L 24 19 L 26 19 L 26 1 Z M 22 4.242188 C 12.824219 5.5625 5.558594 12.824219 4.234375 22 L 8.265625 22 C 9.515625 15.03125 15.027344 9.53125 22 8.28125 Z M 28 4.242188 L 28 8.28125 C 34.972656 9.527344 40.484375 15.03125 41.734375 22 L 45.765625 22 C 44.441406 12.824219 37.175781 5.5625 28 4.242188 Z M 22 13.394531 C 17.792969 14.484375 14.472656 17.796875 13.382813 22 L 17.609375 22 C 18.425781 20.003906 20.003906 18.402344 22 17.589844 Z M 28 13.394531 L 28 17.589844 C 30 18.402344 31.578125 20.003906 32.390625 22 L 36.621094 22 C 35.53125 17.796875 32.207031 14.484375 28 13.394531 Z M 25.003906 22 C 23.347656 22 22 23.34375 22 25 C 22 26.65625 23.347656 28 25.003906 28 C 26.660156 28 27.949219 26.65625 27.949219 25 C 27.949219 23.34375 26.660156 22 25.003906 22 Z M 1 24 L 1 26 L 19 26 L 19 24 Z M 31 24 L 31 26 L 49 26 L 49 24 Z M 4.242188 28 C 5.5625 37.175781 12.824219 44.441406 22 45.765625 L 22 41.734375 C 15.03125 40.484375 9.53125 34.972656 8.28125 28 Z M 13.378906 28 C 14.46875 32.203125 17.792969 35.515625 22 36.605469 L 22 32.410156 C 20 31.597656 18.421875 29.996094 17.609375 28 Z M 41.71875 28 C 40.46875 34.972656 34.96875 40.484375 28 41.734375 L 28 45.765625 C 37.175781 44.441406 44.4375 37.175781 45.761719 28 Z M 32.410156 28 C 31.597656 30 29.996094 31.578125 28 32.390625 L 28 36.621094 C 32.203125 35.53125 35.515625 32.207031 36.605469 28 Z M 24 31 L 24 49 L 26 49 L 26 31 Z " fill="#ffffff"/></g></svg>